<svg width="15" height="13" viewBox="0 0 15 13" fill="none" xmlns="http://www.w3.org/2000/svg">
<path d="M0.340909 13L7.56392 0.727272L14.7869 13H0.340909ZM7.56392 11.6044C7.84091 11.6044 8.07706 11.5067 8.27237 11.3114C8.47124 11.1161 8.57067 10.88 8.57067 10.603C8.57067 10.3224 8.47124 10.0845 8.27237 9.8892C8.07706 9.69389 7.84091 9.59624 7.56392 9.59624C7.28693 9.59624 7.04901 9.69389 6.85014 9.8892C6.65483 10.0845 6.55717 10.3224 6.55717 10.603C6.55717 10.88 6.65483 11.1161 6.85014 11.3114C7.04901 11.5067 7.28693 11.6044 7.56392 11.6044ZM6.86612 8.42436H8.26172L8.35227 4.81818H6.77557L6.86612 8.42436Z" fill="#FF0000"/>
</svg>
